<svg width="24" height="24" viewBox="0 0 24 24" fill="none" xmlns="http://www.w3.org/2000/svg">
<path d="M12 1C5.92866 1 1 5.92866 1 12C1 18.0713 5.92866 23 12 23C18.0713 23 23 18.0713 23 12C22.9862 5.92866 18.0713 1 12 1ZM10.7059 10.4581L14.0238 11.6145C15.2215 12.0413 15.7997 12.8811 15.7997 14.1752C15.7997 15.6621 14.6158 16.8874 13.1702 16.8874H13.0463V16.9562C13.0463 17.5207 12.5782 17.9887 12.0138 17.9887C11.4493 17.9887 10.9812 17.5207 10.9812 16.9562V16.8736C9.45307 16.8048 8.22778 15.5244 8.22778 13.9274C8.22778 13.363 8.69587 12.8949 9.26033 12.8949C9.82478 12.8949 10.2929 13.363 10.2929 13.9274C10.2929 14.423 10.6508 14.8223 11.0914 14.8223H13.1564C13.4731 14.8223 13.7209 14.5332 13.7209 14.1752C13.7209 13.6934 13.6383 13.6658 13.3217 13.5557L10.0038 12.3992C8.81977 11.9862 8.22778 11.1464 8.22778 9.83855C8.22778 8.35169 9.41176 7.12641 10.8573 7.12641H10.9812V7.07134C10.9812 6.50688 11.4493 6.0388 12.0138 6.0388C12.5782 6.0388 13.0463 6.50688 13.0463 7.07134V7.15394C14.5745 7.22278 15.7997 8.50313 15.7997 10.1001C15.7997 10.6646 15.3317 11.1327 14.7672 11.1327C14.2028 11.1327 13.7347 10.6646 13.7347 10.1001C13.7347 9.60451 13.3767 9.20526 12.9362 9.20526H10.8711C10.5544 9.20526 10.3066 9.49437 10.3066 9.85232C10.2929 10.3204 10.3755 10.3479 10.7059 10.4581Z" fill="currentColor" />
</svg>
