<svg width="24" height="24" viewBox="0 0 24 24" fill="none" xmlns="http://www.w3.org/2000/svg">
<path d="M15.5 17H21.5M21.5 17L19 19.5M21.5 17L19 14.5" stroke="currentColor" stroke-width="2" stroke-linecap="round" stroke-linejoin="round"/>
<path d="M21.5 13V5C21.5 4.60218 21.342 4.22064 21.0607 3.93934C20.7794 3.65804 20.3978 3.5 20 3.5H4C3.60218 3.5 3.22064 3.65804 2.93934 3.93934C2.65804 4.22064 2.5 4.60218 2.5 5V19C2.5 19.3978 2.65804 19.7794 2.93934 20.0607C3.22064 20.342 3.60218 20.5 4 20.5H14.235" stroke="currentColor" stroke-width="2" stroke-linecap="round" stroke-linejoin="round"/>
<path d="M10 7V17" stroke="currentColor" stroke-width="2" stroke-linecap="round" stroke-linejoin="round"/>
<path d="M12.5 8.5H8.75C8.28587 8.5 7.84075 8.68437 7.51256 9.01256C7.18437 9.34075 7 9.78587 7 10.25C7 10.7141 7.18437 11.1592 7.51256 11.4874C7.84075 11.8156 8.28587 12 8.75 12H11.25C11.7141 12 12.1592 12.1844 12.4874 12.5126C12.8156 12.8408 13 13.2859 13 13.75C13 14.2141 12.8156 14.6592 12.4874 14.9874C12.1592 15.3156 11.7141 15.5 11.25 15.5H7" stroke="currentColor" stroke-width="2" stroke-linecap="round" stroke-linejoin="round"/>
</svg>
