<svg width="24" height="24" viewBox="0 0 24 24" fill="none" xmlns="http://www.w3.org/2000/svg">
<path d="M21.9199 5.62C21.8449 5.43738 21.7175 5.28106 21.5538 5.17072C21.3901 5.06039 21.1974 5.00099 20.9999 5H18.9999V3C18.999 2.80258 18.9396 2.60986 18.8292 2.44614C18.7189 2.28242 18.5626 2.15502 18.3799 2.08C18.1978 2.00342 17.9971 1.9825 17.8031 2.01987C17.6091 2.05725 17.4306 2.15124 17.2899 2.29L14.2899 5.29C14.1973 5.38344 14.1239 5.49426 14.0742 5.6161C14.0244 5.73793 13.9992 5.8684 13.9999 6V8.59L11.7899 10.79C11.6962 10.883 11.6218 10.9936 11.571 11.1154C11.5203 11.2373 11.4941 11.368 11.4941 11.5C11.4941 11.632 11.5203 11.7627 11.571 11.8846C11.6218 12.0064 11.6962 12.117 11.7899 12.21C11.8829 12.3037 11.9935 12.3781 12.1154 12.4289C12.2372 12.4797 12.3679 12.5058 12.4999 12.5058C12.632 12.5058 12.7627 12.4797 12.8845 12.4289C13.0064 12.3781 13.117 12.3037 13.2099 12.21L15.4099 10H17.9999C18.1315 10.0008 18.262 9.97554 18.3838 9.92577C18.5057 9.87601 18.6165 9.80268 18.7099 9.71L21.7099 6.71C21.8487 6.56938 21.9427 6.3908 21.9801 6.19682C22.0174 6.00283 21.9965 5.80211 21.9199 5.62Z" fill="currentColor" />
<path d="M12 22C9.34783 22 6.8043 20.9464 4.92893 19.0711C3.05357 17.1957 2 14.6522 2 12C2 9.34783 3.05357 6.8043 4.92893 4.92893C6.8043 3.05357 9.34783 2 12 2H12.42C12.5513 2.01182 12.679 2.04939 12.7958 2.11056C12.9126 2.17174 13.0162 2.25532 13.1007 2.35653C13.1852 2.45775 13.249 2.57462 13.2883 2.70047C13.3277 2.82631 13.3418 2.95868 13.33 3.09C13.3182 3.22132 13.2806 3.34903 13.2194 3.46583C13.1583 3.58264 13.0747 3.68624 12.9735 3.77075C12.8722 3.85525 12.7554 3.91899 12.6295 3.95832C12.5037 3.99766 12.3713 4.01182 12.24 4H12C10.4177 4 8.87103 4.46919 7.55544 5.34824C6.23984 6.22729 5.21446 7.47672 4.60896 8.93853C4.00346 10.4003 3.84504 12.0089 4.15372 13.5607C4.4624 15.1126 5.22433 16.538 6.34315 17.6569C7.46197 18.7757 8.88743 19.5376 10.4393 19.8463C11.9911 20.155 13.5997 19.9965 15.0615 19.391C16.5233 18.7855 17.7727 17.7602 18.6518 16.4446C19.5308 15.129 20 13.5822 20 12C20.005 11.9201 20.005 11.8399 20 11.76C19.9876 11.6286 20.0014 11.496 20.0405 11.3699C20.0797 11.2439 20.1434 11.1268 20.228 11.0255C20.3126 10.9241 20.4164 10.8405 20.5334 10.7795C20.6505 10.7185 20.7785 10.6813 20.91 10.67C21.0414 10.6576 21.174 10.6714 21.3001 10.7105C21.4261 10.7497 21.5432 10.8134 21.6445 10.898C21.7459 10.9826 21.8295 11.0864 21.8905 11.2034C21.9515 11.3205 21.9887 11.4485 22 11.58C22 11.72 22 11.86 22 12C22 14.6522 20.9464 17.1957 19.0711 19.0711C17.1957 20.9464 14.6522 22 12 22ZM17.88 13.2C17.933 12.9348 17.8786 12.6594 17.7285 12.4343C17.5785 12.2093 17.3452 12.053 17.08 12C16.8148 11.947 16.5394 12.0014 16.3143 12.1515C16.0893 12.3015 15.933 12.5348 15.88 12.8C15.7364 13.5104 15.4024 14.1683 14.9139 14.7036C14.4254 15.239 13.8006 15.6315 13.1063 15.8393C12.412 16.0471 11.6743 16.0624 10.972 15.8835C10.2697 15.7046 9.62918 15.3383 9.1189 14.8236C8.60863 14.309 8.24776 13.6654 8.07485 12.9616C7.90194 12.2578 7.9235 11.5202 8.1372 10.8277C8.35091 10.1352 8.74874 9.51381 9.2882 9.02985C9.82765 8.54589 10.4885 8.21758 11.2 8.08C11.4652 8.02696 11.6985 7.87073 11.8485 7.64568C11.9986 7.42064 12.053 7.14522 12 6.88C11.947 6.61478 11.7907 6.3815 11.5657 6.23147C11.3406 6.08144 11.0652 6.02696 10.8 6.08C9.73811 6.29705 8.75484 6.79768 7.95464 7.52872C7.15445 8.25975 6.56722 9.19389 6.25533 10.2319C5.94344 11.2699 5.91854 12.373 6.18328 13.424C6.44801 14.475 6.9925 15.4347 7.7589 16.2011C8.52529 16.9675 9.48497 17.512 10.536 17.7767C11.587 18.0415 12.6901 18.0166 13.7281 17.7047C14.7661 17.3928 15.7002 16.8055 16.4313 16.0054C17.1623 15.2052 17.6629 14.2219 17.88 13.16V13.2Z" fill="currentColor" />
</svg>
